<svg xmlns="http://www.w3.org/2000/svg" viewBox="0 0 198.72 191.46" fill="#FACC15">
  <g id="Layer_2" data-name="Layer 2">
    <g id="Layer_1-2" data-name="Layer 1">
      <path
        d="M188.82,32.15a86.24,86.24,0,0,0,9.9-12.23,85,85,0,0,1-24.4,6.69A42.52,42.52,0,0,0,193,3.11a85.69,85.69,0,0,1-18.17,8.08A15.43,15.43,0,0,1,160.9,8.77a42.53,42.53,0,0,0-68.1,28.7c-1,8.36-15,10.2-23.28,8.55C42.37,40.55,24.81,29.9,7.56,9.54a1.57,1.57,0,0,0-2.6.3,42.59,42.59,0,0,0,2.9,43.48A4.67,4.67,0,0,1,2,60.22l-.18-.08A1.27,1.27,0,0,0,0,61.33,42.55,42.55,0,0,0,19.94,95.74a3.69,3.69,0,0,1-2.49,6.76l-.2,0a1.46,1.46,0,0,0-1.55,2c.38,1,.79,1.93,1.23,2.86A10.37,10.37,0,0,0,27.59,113c4.64-.54,9.37,1.38,13.46,4a15.52,15.52,0,0,1,3.64,23q-.3.38-.63.75c-7.21,8.41-15.72,13.48-25.28,15.08a2.08,2.08,0,0,0-1.73,2.09,3.34,3.34,0,0,0,.25,1c1.42,3.33,8.57,6.08,20.67,8,1.13.17,1.61,2,2.27,5,.26,1.21.54,2.46.92,3.76a2.36,2.36,0,0,0,2.58,1.85,20.8,20.8,0,0,0,3.45-.49,44.18,44.18,0,0,1,9.07-1,40.85,40.85,0,0,1,6.54.55c4.51.75,8.36,3.47,12.44,6.36,5.69,4,12.14,8.58,21.78,8.58q.42,0,.81,0c.34,0,.77,0,1.23,0,9.65,0,16.1-4.56,21.8-8.59,4.07-2.88,7.92-5.6,12.42-6.34a40,40,0,0,1,6.55-.56,45.76,45.76,0,0,1,9.07,1,19.24,19.24,0,0,0,3.45.44h.19a2.49,2.49,0,0,0,2.38-1.77c.38-1.28.66-2.51.93-3.76.66-3,1.13-4.84,2.27-5,12.1-1.87,19.25-4.62,20.66-7.93a3,3,0,0,0,.25-1,2,2,0,0,0-1.71-2.11,38.38,38.38,0,0,1-10.24-3.25,25.73,25.73,0,0,1-10.16-37.26A126,126,0,0,0,177.21,57,40.76,40.76,0,0,1,188.82,32.15Z" />
    </g>
  </g>
</svg>