<?xml version="1.0" standalone="no"?>
<!DOCTYPE svg PUBLIC "-//W3C//DTD SVG 20010904//EN"
 "http://www.w3.org/TR/2001/REC-SVG-20010904/DTD/svg10.dtd">
<svg version="1.0" xmlns="http://www.w3.org/2000/svg"
 width="820.000000pt" height="820.000000pt" viewBox="0 0 820.000000 820.000000"
 preserveAspectRatio="xMidYMid meet">
<metadata>
Created by potrace 1.14, written by Peter Selinger 2001-2017
</metadata>
<g transform="translate(0.000000,820.000000) scale(0.100000,-0.100000)"
fill="#000000" stroke="none">
<path d="M8084 8181 c-5 -5 -81 -51 -169 -102 -88 -51 -162 -95 -165 -98 -5
-6 -24 -17 -103 -60 -81 -44 -142 -75 -147 -76 -3 0 -40 -17 -83 -38 -44 -20
-85 -37 -93 -37 -8 0 -14 -4 -14 -10 0 -5 -3 -9 -7 -8 -5 0 -17 -2 -28 -6 -11
-4 -33 -13 -50 -19 -16 -7 -32 -12 -35 -13 -3 0 -12 -4 -20 -7 -179 -76 -341
-79 -469 -11 -39 21 -211 134 -247 164 -30 23 -269 132 -351 159 -169 57 -318
87 -476 96 -38 2 -71 6 -74 8 -2 3 -18 1 -34 -3 -18 -5 -29 -5 -29 1 0 6 -4 8
-8 5 -4 -2 -49 -7 -100 -10 -94 -6 -148 -12 -192 -22 -39 -9 -62 -14 -95 -19
-37 -7 -206 -55 -220 -63 -5 -4 -14 -7 -20 -9 -60 -13 -365 -168 -365 -185 0
-4 -5 -8 -11 -8 -10 0 -122 -81 -188 -136 -47 -39 -190 -185 -221 -225 -14
-18 -29 -37 -35 -43 -5 -6 -26 -34 -45 -61 -19 -28 -38 -51 -42 -53 -4 -2 -8
-7 -8 -12 0 -4 -17 -37 -38 -71 -48 -80 -115 -218 -142 -295 -24 -66 -31 -88
-31 -91 0 -2 -7 -22 -15 -45 -8 -24 -17 -58 -20 -77 -3 -19 -10 -45 -15 -58
-5 -13 -8 -27 -7 -31 1 -4 -2 -27 -6 -52 -4 -25 -10 -58 -12 -74 -15 -91 -102
-156 -262 -196 -219 -55 -384 -45 -737 45 -55 14 -107 27 -116 29 -54 14 -107
29 -124 37 -11 5 -29 11 -40 12 -11 2 -27 7 -35 10 -8 3 -44 15 -80 27 -36 12
-74 26 -85 30 -32 13 -59 23 -70 25 -5 2 -36 14 -67 29 -31 14 -60 26 -65 26
-8 0 -296 143 -323 160 -8 5 -51 31 -95 57 -137 82 -195 121 -311 210 -196
149 -421 358 -592 549 -29 32 -59 66 -68 75 -8 10 -26 32 -40 50 -13 18 -24
29 -24 24 0 -5 -7 1 -16 13 -16 24 -75 53 -111 56 -12 1 -25 4 -28 8 -7 7 -67
-8 -110 -27 -45 -21 -92 -77 -126 -151 l-29 -66 0 -727 0 -726 46 -94 c26 -52
69 -129 95 -171 27 -42 49 -82 49 -88 0 -16 -31 -20 -70 -7 -19 6 -53 11 -75
11 l-40 -1 -3 -450 -2 -449 34 -71 c19 -38 49 -92 65 -120 17 -27 36 -60 42
-72 7 -13 16 -23 21 -23 4 0 8 -5 8 -11 0 -12 82 -119 140 -183 77 -85 170
-172 250 -233 30 -23 60 -47 67 -53 7 -5 16 -10 22 -10 5 0 11 -6 14 -14 4 -9
-2 -12 -19 -10 -13 1 -24 -3 -24 -9 0 -5 -3 -8 -6 -4 -11 11 -61 -21 -97 -63
-59 -69 -65 -152 -18 -265 38 -90 72 -155 83 -155 4 0 8 -5 8 -10 0 -13 75
-90 125 -126 37 -28 134 -75 180 -87 36 -10 109 -20 145 -19 150 4 235 1 235
-8 0 -1 11 -3 24 -6 41 -8 138 -50 217 -95 255 -146 328 -438 170 -673 -52
-77 -169 -200 -266 -280 -73 -61 -205 -156 -215 -156 -3 0 -23 -11 -44 -24
-21 -14 -41 -23 -43 -20 -3 2 -11 -2 -18 -11 -7 -8 -20 -15 -29 -15 -9 0 -21
-4 -27 -9 -5 -5 -49 -22 -99 -39 -100 -33 -142 -44 -224 -58 -76 -13 -159 -84
-185 -160 -41 -122 26 -264 170 -360 81 -54 283 -134 397 -158 7 -2 19 -5 27
-9 24 -9 144 -32 158 -31 6 1 12 -1 12 -5 0 -4 8 -7 18 -7 36 -2 107 -16 115
-23 4 -4 9 -22 10 -39 1 -18 4 -32 7 -32 3 0 6 -8 7 -17 0 -10 4 -29 8 -43 4
-14 8 -34 10 -45 7 -33 13 -60 15 -62 2 -2 3 -6 4 -10 18 -70 90 -144 165
-169 55 -18 144 -16 256 6 33 7 71 13 85 15 14 2 25 4 25 5 0 6 119 13 225 13
251 1 341 -24 529 -148 46 -30 88 -55 92 -55 4 0 9 -4 11 -8 1 -4 32 -28 68
-52 36 -25 67 -48 68 -52 2 -5 10 -8 18 -8 8 0 14 -3 14 -8 0 -4 20 -18 45
-31 25 -13 45 -28 45 -32 0 -5 4 -9 10 -9 5 0 46 -20 90 -44 44 -25 83 -45 85
-45 3 -1 22 -8 43 -17 54 -23 180 -64 232 -74 25 -5 56 -12 70 -16 42 -11 422
-14 475 -3 202 39 257 56 415 132 36 17 83 42 105 56 76 47 240 155 245 161 3
3 55 39 115 78 61 40 115 76 120 80 8 7 37 21 55 27 3 1 22 9 43 19 69 30 187
49 322 50 128 1 257 -8 288 -19 8 -4 30 -8 49 -10 18 -2 33 -4 33 -5 0 -4 48
-10 120 -15 88 -5 128 4 190 42 33 21 85 80 91 103 0 3 6 17 12 31 9 22 16 53
27 109 1 3 4 14 8 25 3 11 9 34 12 50 9 46 10 49 18 61 3 6 30 15 59 19 29 5
55 9 58 10 15 4 69 15 99 20 19 3 38 8 41 10 4 3 25 7 46 11 20 3 49 10 63 16
14 5 34 12 44 14 43 10 56 15 127 42 255 100 381 236 367 395 -9 105 -84 195
-177 213 -134 25 -294 75 -382 120 -27 13 -51 24 -54 23 -4 0 -10 3 -13 8 -3
4 -26 21 -50 37 -62 40 -181 160 -227 231 -64 97 -115 222 -129 317 -2 15 -6
32 -10 37 -7 13 -7 215 0 256 3 17 13 57 22 90 8 33 16 65 17 70 6 32 112 228
127 233 5 2 9 8 9 13 0 5 20 40 45 79 25 39 45 75 45 80 0 6 5 10 10 10 6 0
10 4 10 10 0 5 19 42 43 82 43 74 207 399 207 411 0 4 12 32 26 64 50 111 84
196 115 288 8 22 18 43 24 47 5 4 7 8 3 8 -4 0 0 16 8 35 8 19 11 35 8 35 -4
0 -2 6 3 13 5 6 15 32 22 57 7 25 17 54 21 65 7 17 31 104 36 128 1 4 2 8 4
10 1 1 3 9 5 17 2 8 17 69 33 135 27 105 66 291 77 365 6 42 15 98 21 138 6
40 8 55 18 152 20 188 25 222 32 255 4 17 7 37 8 45 1 9 5 21 10 28 4 6 5 12
1 12 -3 0 1 16 9 35 8 19 13 35 11 35 -9 0 76 212 88 221 5 3 8 10 8 15 -2 14
110 198 125 207 8 4 14 12 14 18 0 11 30 47 126 149 38 41 81 88 95 103 13 16
35 41 49 56 43 46 73 83 133 162 l57 76 -2 201 -3 200 -100 -43 c-55 -24 -113
-48 -130 -55 -16 -6 -45 -18 -63 -26 -18 -8 -37 -14 -42 -14 -5 0 -21 -5 -37
-12 -15 -6 -39 -13 -53 -15 l-24 -4 19 23 c11 13 23 25 26 28 3 3 28 41 57 85
28 44 55 85 59 90 18 22 112 224 133 285 12 36 26 74 30 85 13 30 73 218 75
235 1 8 5 22 9 30 15 37 46 134 43 136 -2 2 -8 0 -13 -5z"/>
</g>
</svg>
